Coordinates
version=1
nRows=24
nColumns=24
inDegrees=yes

Units are S.I. units (second, meters, Newtons, ...)
Angles are in degrees.

endheader
time	pelvis_tilt	pelvis_list	pelvis_rotation	pelvis_tx	pelvis_ty	pelvis_tz	hip_flexion_r	hip_adduction_r	hip_rotation_r	knee_angle_r	ankle_angle_r	subtalar_angle_r	mtp_angle_r	hip_flexion_l	hip_adduction_l	hip_rotation_l	knee_angle_l	ankle_angle_l	subtalar_angle_l	mtp_angle_l	lumbar_extension	lumbar_bending	lumbar_rotation
      8.09000000	     52.35567454	      4.45496865	     -4.26560891	      1.28712484	      1.04361593	     -0.28851167	     24.70860482	     -8.67985161	      6.24330315	    -62.42874723	    -24.55178327	      0.00000000	      0.00000000	     19.04892592	    -11.01253490	     -5.32216973	    -62.96638283	    -14.76079750	      0.00000000	      0.00000000	      0.00000000	      0.00000000	      0.00000000
      8.10000000	     52.35590749	      4.45974600	     -4.26301671	      1.28711768	      1.04361904	     -0.28853317	     24.71724208	     -8.70150517	      6.24418060	    -62.57889672	    -24.56889348	      0.00000000	      0.00000000	     19.04811250	    -11.00080152	     -5.31431762	    -62.96541319	    -14.75560320	      0.00000000	      0.00000000	      0.00000000	      0.00000000	      0.00000000
      8.11000000	     52.35734044	      4.46368861	     -4.26194295	      1.28711480	      1.04361916	     -0.28855170	     24.72574869	     -8.72361571	      6.24744070	    -62.73317629	    -24.58011285	      0.00000000	      0.00000000	     19.04532005	    -10.98807579	     -5.30406018	    -62.96319359	    -14.74977340	      0.00000000	      0.00000000	      0.00000000	      0.00000000	      0.00000000
      8.12000000	     52.36009651	      4.46677542	     -4.26170646	      1.28712229	      1.04361235	     -0.28855877	     24.73403424	     -8.74513759	      6.25278892	    -62.89033621	    -24.58633099	      0.00000000	      0.00000000	     19.04022232	    -10.97491652	     -5.29263804	    -62.96101692	    -14.74355118	      0.00000000	      0.00000000	      0.00000000	      0.00000000	      0.00000000
      8.13000000	     52.36449799	      4.46922208	     -4.26182047	      1.28713568	      1.04360220	     -0.28856087	     24.74162226	     -8.76536930	      6.26010144	    -63.04911378	    -24.58974888	      0.00000000	      0.00000000	     19.03325603	    -10.96228418	     -5.28167870	    -62.95993546	    -14.73735604	      0.00000000	      0.00000000	      0.00000000	      0.00000000	      0.00000000
      8.14000000	     52.37072420	      4.47124526	     -4.26208379	      1.28714166	      1.04359401	     -0.28856821	     24.74765327	     -8.78424660	      6.26980729	    -63.20848805	    -24.59328021	      0.00000000	      0.00000000	     19.02539468	    -10.95147408	     -5.27265337	    -62.96035814	    -14.73170036	      0.00000000	      0.00000000	      0.00000000	      0.00000000	      0.00000000
      8.15000000	     52.37869591	      4.47278824	     -4.26233651	      1.28713344	      1.04358580	     -0.28858050	     24.75154248	     -8.80226140	      6.28288860	    -63.36749487	    -24.59956984	      0.00000000	      0.00000000	     19.01739677	    -10.94359439	     -5.26645839	    -62.96207449	    -14.72704894	      0.00000000	      0.00000000	      0.00000000	      0.00000000	      0.00000000
      8.16000000	     52.38821529	      4.47364761	     -4.26241360	      1.28712195	      1.04357592	     -0.28859101	     24.75344233	     -8.81996855	      6.30035742	    -63.52491386	    -24.61008807	      0.00000000	      0.00000000	     19.00940344	    -10.93910405	     -5.26323107	    -62.96444093	    -14.72368004	      0.00000000	      0.00000000	      0.00000000	      0.00000000	      0.00000000
      8.17000000	     52.39893317	      4.47373729	     -4.26246792	      1.28711870	      1.04356958	     -0.28859515	     24.75389859	     -8.83749178	      6.32258511	    -63.67923580	    -24.62471281	      0.00000000	      0.00000000	     19.00114359	    -10.93763208	     -5.26248991	    -62.96655446	    -14.72160898	      0.00000000	      0.00000000	      0.00000000	      0.00000000	      0.00000000
      8.18000000	     52.41021993	      4.47319559	     -4.26318163	      1.28711538	      1.04356989	     -0.28859228	     24.75323756	     -8.85440868	      6.34899851	    -63.82884657	    -24.64188246	      0.00000000	      0.00000000	     18.99231078	    -10.93809755	     -5.26349111	    -62.96745845	    -14.72060608	      0.00000000	      0.00000000	      0.00000000	      0.00000000	      0.00000000
      8.19000000	     52.42129476	      4.47235707	     -4.26536153	      1.28709596	      1.04357064	     -0.28858662	     24.75142872	     -8.87007250	      6.37837503	    -63.97223208	    -24.65917978	      0.00000000	      0.00000000	     18.98274628	    -10.93915293	     -5.26553269	    -62.96644067	    -14.72029675	      0.00000000	      0.00000000	      0.00000000	      0.00000000	      0.00000000
      8.20000000	     52.43150352	      4.47151326	     -4.26916021	      1.28706273	      1.04356570	     -0.28858395	     24.74837611	     -8.88416577	      6.40950799	    -64.10824185	    -24.67418613	      0.00000000	      0.00000000	     18.97245748	    -10.93973606	     -5.26807800	    -62.96331719	    -14.72029820	      0.00000000	      0.00000000	      0.00000000	      0.00000000	      0.00000000
      8.21000000	     52.44045344	      4.47072732	     -4.27379955	      1.28703715	      1.04356190	     -0.28858535	     24.74411583	     -8.89702974	      6.44159316	    -64.23641228	    -24.68535634	      0.00000000	      0.00000000	     18.96169130	    -10.93945134	     -5.27073587	    -62.95848663	    -14.72033875	      0.00000000	      0.00000000	      0.00000000	      0.00000000	      0.00000000
      8.22000000	     52.44799057	      4.46992900	     -4.27814231	      1.28703329	      1.04357144	     -0.28858816	     24.73879346	     -8.90945456	      6.47399269	    -64.35705895	    -24.69251855	      0.00000000	      0.00000000	     18.95100080	    -10.93857068	     -5.27322948	    -62.95274280	    -14.72031948	      0.00000000	      0.00000000	      0.00000000	      0.00000000	      0.00000000
      8.23000000	     52.45426759	      4.46904237	     -4.28142723	      1.28704130	      1.04359372	     -0.28859105	     24.73273438	     -8.92212179	      6.50583055	    -64.47089078	    -24.69674196	      0.00000000	      0.00000000	     18.94109071	    -10.93766919	     -5.27541601	    -62.94702036	    -14.72030701	      0.00000000	      0.00000000	      0.00000000	      0.00000000	      0.00000000
      8.24000000	     52.45990964	      4.46801093	     -4.28346129	      1.28704447	      1.04361303	     -0.28859532	     24.72667457	     -8.93514550	      6.53600150	    -64.57832827	    -24.69968973	      0.00000000	      0.00000000	     18.93246052	    -10.93720453	     -5.27728013	    -62.94220083	    -14.72048084	      0.00000000	      0.00000000	      0.00000000	      0.00000000	      0.00000000
      8.25000000	     52.46577534	      4.46674969	     -4.28441107	      1.28703974	      1.04361454	     -0.28860232	     24.72163491	     -8.94806977	      6.56362094	    -64.67910809	    -24.70285751	      0.00000000	      0.00000000	     18.92513718	    -10.93732946	     -5.27883859	    -62.93896359	    -14.72106929	      0.00000000	      0.00000000	      0.00000000	      0.00000000	      0.00000000
      8.26000000	     52.47225210	      4.46509222	     -4.28461806	      1.28703441	      1.04360135	     -0.28861035	     24.71821844	     -8.96024434	      6.58847849	    -64.77248215	    -24.70707207	      0.00000000	      0.00000000	     18.91876040	    -10.93794342	     -5.28001407	    -62.93761091	    -14.72228785	      0.00000000	      0.00000000	      0.00000000	      0.00000000	      0.00000000
      8.27000000	     52.47891529	      4.46287897	     -4.28447121	      1.28703321	      1.04359156	     -0.28861474	     24.71608707	     -8.97117555	      6.61109786	    -64.85762390	    -24.71236552	      0.00000000	      0.00000000	     18.91291331	    -10.93883104	     -5.28059147	    -62.93793019	    -14.72428049	      0.00000000	      0.00000000	      0.00000000	      0.00000000	      0.00000000
      8.28000000	     52.48501395	      4.46016771	     -4.28429678	      1.28703331	      1.04359476	     -0.28861368	     24.71425558	     -8.98067625	      6.63237387	    -64.93378996	    -24.71814715	      0.00000000	      0.00000000	     18.90740258	    -10.93977936	     -5.28030693	    -62.93923303	    -14.72706883	      0.00000000	      0.00000000	      0.00000000	      0.00000000	      0.00000000
      8.29000000	     52.49017206	      4.45734173	     -4.28427634	      1.28703008	      1.04360056	     -0.28861142	     24.71182730	     -8.98889109	      6.65306559	    -65.00026709	    -24.72354034	      0.00000000	      0.00000000	     18.90230149	    -10.94060777	     -5.27903118	    -62.94061740	    -14.73051823	      0.00000000	      0.00000000	      0.00000000	      0.00000000	      0.00000000
      8.30000000	     52.49461484	      4.45497501	     -4.28435784	      1.28702421	      1.04359916	     -0.28861224	     24.70846839	     -8.99622833	      6.67347508	    -65.05635682	    -24.72773678	      0.00000000	      0.00000000	     18.89777817	    -10.94112950	     -5.27695439	    -62.94132854	    -14.73432472	      0.00000000	      0.00000000	      0.00000000	      0.00000000	      0.00000000
      8.31000000	     52.49888092	      4.45356037	     -4.28428848	      1.28701830	      1.04359638	     -0.28861474	     24.70433984	     -9.00321289	      6.69344948	    -65.10151729	    -24.73023290	      0.00000000	      0.00000000	     18.89388284	    -10.94112939	     -5.27466568	    -62.94101105	    -14.73803187	      0.00000000	      0.00000000	      0.00000000	      0.00000000	      0.00000000
      8.32000000	     52.50340379	      4.45335566	     -4.28386567	      1.28701030	      1.04359855	     -0.28861518	     24.69967745	     -9.01033932	      6.71259462	    -65.13559280	    -24.73089068	      0.00000000	      0.00000000	     18.89046993	    -10.94043914	     -5.27301002	    -62.93972998	    -14.74109654	      0.00000000	      0.00000000	      0.00000000	      0.00000000	      0.00000000
